{"title":"ROH 2016 03 19 720p HDTV h264 [TJET]","uid":13956289,"size":709717918,"categoryP":"video","categoryS":"hd___tv_shows","magnet":"?xt=urn:btih:20c73a2a453b16aa7e8da6c589bb549b5cd63d75&amp;dn=ROH+2016+03+19+720p+HDTV+h264+%5BTJET%5D&amp;tr=udp%3A%2F%2Ftracker.leechers-paradise.org%3A6969&amp;tr=udp%3A%2F%2Fzer0day.ch%3A1337&amp;tr=udp%3A%2F%2Fopen.demonii.com%3A1337&amp;tr=udp%3A%2F%2Ftracker.coppersurfer.tk%3A6969&amp;tr=udp%3A%2F%2Fexodus.desync.com%3A6969","seeders":1,"leechers":0,"uploader":"CenaCme","files":2,"time":1458542074,"description":"ROH TV 2016-03-19\r\nSam's Town - Las Vegas, NV\r\n\r\nROH World TV Title - Tomohiro Ishii © vs. Cedric Alexander\r\nReno Scum vs. The Briscoes\r\nThe Young Bucks vs. Michael Elgin &amp; Hiroshi Tanahashi\r\n\r\nComplete name: ROH.2016.03.19.720p.HDTV.h264.mp4\r\nFormat: MPEG-4\r\nFormat profile: Base Media\r\nCodec ID: isom\r\nFile size: 677 MiB\r\nDuration: 49mn 28s\r\nOverall bit rate mode: Variable\r\nOverall bit rate: 1 913 Kbps\r\n\r\nVideo\r\nID: 1\r\nFormat: AVC\r\nFormat/Info: Advanced Video Codec\r\nFormat profile:   \r\nFormat settings, CABAC: Yes\r\nFormat settings, ReFrames: 3 frames\r\nFormat settings, GOP: M=1, N=59\r\nCodec ID: avc1\r\nCodec ID/Info: Advanced Video Coding\r\nDuration: 49mn 28s\r\nSource duration: 49mn 27s\r\nBit rate mode: Variable\r\nBit rate: 1 781 Kbps\r\nMaximum bit rate: 1 760 Kbps\r\nWidth: 1 280 pixels\r\nHeight: 720 pixels\r\nDisplay aspect ratio: 16:9\r\nFrame rate mode: Variable\r\nFrame rate: 29.970 fps\r\nMinimum frame rate: 29.412 fps\r\nMaximum frame rate: 30.303 fps\r\nStandard: NTSC\r\nColor space: YUV\r\nChroma subsampling: 4:2:0\r\nBit depth: 8 bits\r\nScan type: Progressive\r\nBits/(Pixel*Frame): 0.064\r\nStream size: 630 MiB (93%)\r\nSource stream size: 630 MiB (93%)\r\n\r\nAudio\r\nID: 2\r\nFormat: AAC\r\nFormat/Info: Advanced Audio Codec\r\nFormat profile: LC\r\nCodec ID: 40\r\nDuration: 49mn 28s\r\nBit rate mode: Constant\r\nBit rate: 128 Kbps\r\nChannel(s): 2 channels\r\nChannel positions: Front: L R\r\nSampling rate: 48.0 KHz\r\nCompression mode: Lossy\r\nStream size: 45.3 MiB (7%)\r\n\r\n\r\nThumb sheet:\r\n \nhttp://extraimago.com/image/a7xi","torrent":{"xt":"urn:btih:20c73a2a453b16aa7e8da6c589bb549b5cd63d75","amp;dn":"ROH+2016+03+19+720p+HDTV+h264+%5BTJET%5D","amp;tr":["udp%3A%2F%2Ftracker.leechers-paradise.org%3A6969","udp%3A%2F%2Fzer0day.ch%3A1337","udp%3A%2F%2Fopen.demonii.com%3A1337","udp%3A%2F%2Ftracker.coppersurfer.tk%3A6969","udp%3A%2F%2Fexodus.desync.com%3A6969"],"infoHash":"20c73a2a453b16aa7e8da6c589bb549b5cd63d75","infoHashBuffer":{"type":"Buffer","data":[32,199,58,42,69,59,22,170,126,141,166,197,137,187,84,155,92,214,61,117]},"announce":[],"urlList":[]}}